<svg id="svg" version="1.1" xmlns="http://www.w3.org/2000/svg" xmlns:xlink="http://www.w3.org/1999/xlink" width="400" height="168.6" viewBox="0, 0, 400,168.6"><g id="svgg"><path id="path0" d="M84.528 0.335 C 84.226 0.519,83.980 0.778,83.980 0.911 C 83.980 1.044,83.892 1.182,83.785 1.217 C 83.126 1.437,83.142 -0.579,83.142 84.317 C 83.142 169.213,83.126 167.197,83.785 167.417 C 83.892 167.453,83.980 167.590,83.980 167.723 C 83.980 168.596,87.003 169.006,87.862 168.249 C 88.095 168.043,88.437 167.571,88.620 167.200 C 89.127 166.177,89.151 2.299,88.644 1.370 C 87.887 -0.019,85.920 -0.513,84.528 0.335 M250.084 33.895 L 250.084 60.034 255.333 60.034 L 260.582 60.034 260.483 52.825 C 260.364 44.202,260.347 31.165,260.454 31.058 C 260.496 31.016,260.948 31.391,261.458 31.890 C 261.968 32.390,262.779 33.141,263.260 33.558 C 264.152 34.332,264.614 34.754,267.092 37.055 C 267.868 37.775,268.563 38.387,268.637 38.415 C 268.764 38.463,270.126 39.703,271.535 41.054 C 271.879 41.383,272.240 41.653,272.336 41.653 C 272.433 41.653,272.513 41.754,272.513 41.877 C 272.513 42.001,272.709 42.206,272.948 42.335 C 273.188 42.463,273.535 42.779,273.719 43.038 C 273.903 43.296,274.129 43.508,274.222 43.508 C 274.315 43.508,274.742 43.849,275.171 44.266 C 275.601 44.684,276.018 45.025,276.097 45.025 C 276.177 45.025,276.196 45.101,276.138 45.194 C 276.081 45.287,276.111 45.363,276.205 45.363 C 276.299 45.363,276.892 45.850,277.522 46.445 C 278.152 47.040,278.895 47.704,279.174 47.921 C 279.452 48.137,279.857 48.522,280.074 48.777 C 280.291 49.032,280.534 49.241,280.615 49.241 C 280.696 49.241,281.161 49.659,281.649 50.169 C 282.137 50.679,282.591 51.096,282.659 51.096 C 282.727 51.096,283.271 51.570,283.868 52.150 C 284.466 52.730,285.353 53.546,285.839 53.963 C 286.326 54.380,287.083 55.063,287.522 55.481 C 287.962 55.898,288.840 56.695,289.474 57.251 C 290.108 57.808,290.742 58.396,290.882 58.558 C 291.022 58.720,291.187 58.853,291.249 58.853 C 291.310 58.853,291.843 59.312,292.434 59.873 C 293.024 60.434,293.787 61.155,294.128 61.475 C 294.469 61.795,294.905 62.057,295.097 62.057 L 295.447 62.057 295.447 35.919 L 295.447 9.781 290.368 9.781 L 285.289 9.781 285.355 24.610 C 285.428 40.954,285.520 39.609,284.401 38.580 C 282.694 37.011,282.206 36.594,282.079 36.594 C 282.000 36.594,281.978 36.526,282.029 36.443 C 282.080 36.361,281.914 36.161,281.660 35.999 C 281.405 35.837,280.818 35.335,280.354 34.883 C 279.890 34.431,279.321 33.908,279.089 33.721 C 278.631 33.351,277.066 31.891,275.456 30.331 C 274.895 29.787,274.392 29.342,274.338 29.342 C 274.283 29.342,273.787 28.906,273.234 28.373 C 272.682 27.839,271.643 26.872,270.925 26.223 C 270.208 25.573,269.176 24.625,268.632 24.115 C 267.762 23.299,267.080 22.672,264.443 20.265 C 264.105 19.956,263.259 19.172,262.563 18.523 C 260.940 17.009,259.549 15.728,257.923 14.250 C 257.209 13.600,256.186 12.652,255.650 12.142 C 255.113 11.632,254.162 10.759,253.535 10.202 C 252.908 9.646,252.217 9.016,251.999 8.803 C 251.781 8.591,251.602 8.468,251.602 8.531 C 251.602 8.594,251.445 8.446,251.253 8.201 C 251.046 7.939,250.735 7.757,250.494 7.757 L 250.084 7.757 250.084 33.895 M156.989 9.276 C 156.288 9.343,155.454 9.479,155.134 9.578 C 154.815 9.676,153.719 9.951,152.699 10.188 C 151.679 10.424,150.819 10.695,150.788 10.790 C 150.756 10.884,150.622 10.961,150.490 10.961 C 150.241 10.961,148.715 11.626,148.567 11.800 C 148.520 11.854,148.141 12.048,147.725 12.231 C 147.308 12.414,146.834 12.696,146.671 12.858 C 146.508 13.021,146.272 13.153,146.146 13.153 C 146.020 13.153,145.717 13.340,145.472 13.567 C 145.226 13.794,145.025 13.950,145.025 13.912 C 145.025 13.875,144.825 14.030,144.579 14.258 C 144.334 14.485,144.061 14.671,143.972 14.671 C 143.884 14.671,143.608 14.880,143.360 15.135 C 143.112 15.390,142.531 15.942,142.070 16.362 C 140.755 17.559,138.392 20.494,138.000 21.417 C 137.941 21.556,137.766 21.821,137.611 22.007 C 137.457 22.192,137.186 22.685,137.009 23.103 C 136.832 23.520,136.609 23.917,136.514 23.986 C 136.402 24.065,136.401 24.111,136.509 24.115 C 136.613 24.118,136.609 24.168,136.499 24.244 C 136.400 24.312,136.146 24.861,135.934 25.464 C 135.722 26.067,135.480 26.712,135.396 26.897 C 135.144 27.454,134.570 29.868,134.570 30.371 C 134.570 30.629,134.494 30.887,134.400 30.945 C 134.196 31.071,134.175 31.527,134.183 35.743 C 134.188 38.024,134.247 39.044,134.380 39.088 C 134.484 39.123,134.570 39.308,134.570 39.500 C 134.570 40.038,135.291 43.349,135.387 43.253 C 135.434 43.206,135.651 43.734,135.869 44.426 C 136.087 45.119,136.383 45.802,136.526 45.946 C 136.669 46.089,136.742 46.206,136.687 46.206 C 136.581 46.206,137.411 47.920,137.585 48.061 C 137.692 48.147,137.993 48.650,138.393 49.410 C 138.515 49.642,138.616 49.755,138.618 49.663 C 138.620 49.570,138.867 49.870,139.167 50.330 C 139.468 50.790,139.922 51.395,140.177 51.675 C 140.432 51.954,140.641 52.242,140.641 52.314 C 140.641 52.386,140.755 52.445,140.894 52.445 C 141.033 52.445,141.147 52.539,141.147 52.653 C 141.147 52.908,142.119 53.807,144.351 55.615 C 144.675 55.878,145.245 56.275,145.616 56.497 C 145.987 56.720,146.381 56.990,146.493 57.099 C 146.605 57.207,147.075 57.432,147.538 57.599 C 148.002 57.766,148.346 57.958,148.303 58.027 C 148.261 58.095,148.512 58.243,148.860 58.354 C 149.209 58.465,149.845 58.729,150.273 58.940 C 151.105 59.349,153.661 60.034,154.358 60.034 C 154.589 60.034,154.803 60.101,154.834 60.184 C 155.063 60.797,164.671 60.800,164.896 60.187 C 164.927 60.103,165.104 60.034,165.289 60.034 C 165.685 60.034,168.292 59.384,168.545 59.222 C 168.640 59.161,168.756 59.104,168.803 59.095 C 168.849 59.085,169.115 58.977,169.393 58.853 C 169.671 58.730,169.937 58.616,169.983 58.600 C 170.030 58.585,170.295 58.471,170.573 58.348 C 170.852 58.225,171.136 58.137,171.206 58.152 C 171.275 58.166,171.332 58.109,171.332 58.023 C 171.332 57.938,171.585 57.784,171.895 57.682 C 172.204 57.580,172.607 57.365,172.789 57.205 C 173.139 56.898,173.645 56.583,174.410 56.196 C 174.665 56.067,174.874 55.897,174.874 55.817 C 174.874 55.737,175.023 55.625,175.206 55.567 C 175.389 55.508,175.968 55.048,176.493 54.543 C 177.019 54.039,177.497 53.626,177.556 53.626 C 177.615 53.626,178.041 53.206,178.503 52.694 C 178.965 52.181,179.589 51.489,179.890 51.155 C 180.192 50.821,180.438 50.454,180.438 50.340 C 180.438 50.225,180.628 49.989,180.860 49.815 C 181.092 49.641,181.282 49.403,181.282 49.285 C 181.282 49.168,181.427 48.928,181.604 48.751 C 181.979 48.376,183.917 44.508,183.843 44.282 C 183.816 44.198,183.873 44.079,183.971 44.019 C 184.068 43.959,184.303 43.269,184.492 42.486 C 184.681 41.703,184.907 40.934,184.994 40.777 C 185.683 39.526,185.682 29.000,184.992 29.426 C 184.923 29.469,184.823 29.221,184.771 28.875 C 184.580 27.625,184.188 26.188,183.886 25.632 C 183.516 24.952,182.968 23.643,182.968 23.439 C 182.968 23.336,182.892 23.298,182.799 23.356 C 182.707 23.413,182.631 23.363,182.631 23.244 C 182.631 22.158,178.589 17.045,176.523 15.517 C 176.179 15.262,175.929 15.021,175.968 14.982 C 176.007 14.943,175.739 14.725,175.372 14.498 C 175.005 14.271,174.705 14.029,174.705 13.959 C 174.705 13.889,174.458 13.719,174.157 13.581 C 173.509 13.283,173.076 13.009,172.617 12.605 C 172.432 12.443,172.179 12.310,172.056 12.310 C 171.932 12.310,171.548 12.125,171.202 11.899 C 170.856 11.672,170.118 11.321,169.562 11.117 C 169.005 10.914,168.474 10.690,168.381 10.620 C 168.288 10.550,167.530 10.332,166.695 10.135 C 165.860 9.938,164.942 9.701,164.654 9.608 C 163.355 9.190,159.588 9.026,156.989 9.276 M114.297 31.203 C 114.257 49.184,114.212 52.649,114.017 52.770 C 113.889 52.849,113.834 52.993,113.893 53.089 C 113.953 53.186,113.925 53.313,113.831 53.371 C 113.736 53.429,113.659 53.622,113.659 53.798 C 113.659 54.349,113.132 55.719,112.798 56.035 C 112.622 56.201,112.479 56.401,112.479 56.480 C 112.479 57.311,108.265 60.031,106.914 60.072 C 106.775 60.076,106.580 60.143,106.480 60.221 C 106.380 60.299,105.754 60.414,105.089 60.476 L 103.879 60.588 103.879 65.539 L 103.879 70.489 104.764 70.485 C 106.101 70.480,109.424 70.014,109.612 69.805 C 109.659 69.754,110.377 69.542,111.209 69.334 C 112.041 69.126,112.762 68.898,112.811 68.827 C 112.860 68.756,113.337 68.523,113.870 68.309 C 114.403 68.095,114.840 67.841,114.840 67.743 C 114.840 67.646,114.888 67.614,114.947 67.673 C 115.006 67.733,115.265 67.631,115.521 67.449 C 115.778 67.266,116.071 67.116,116.173 67.116 C 116.274 67.116,116.358 67.040,116.358 66.948 C 116.358 66.855,116.453 66.779,116.570 66.779 C 116.687 66.779,116.877 66.627,116.993 66.442 C 117.109 66.256,117.290 66.105,117.395 66.105 C 117.501 66.105,118.195 65.497,118.938 64.755 C 119.681 64.013,120.222 63.406,120.141 63.406 C 120.059 63.406,120.162 63.288,120.369 63.142 C 120.577 62.997,120.908 62.561,121.105 62.173 C 121.301 61.785,121.642 61.253,121.861 60.990 C 122.080 60.728,122.260 60.379,122.260 60.215 C 122.260 60.051,122.398 59.757,122.567 59.562 C 122.736 59.367,122.972 58.881,123.091 58.482 C 123.210 58.084,123.422 57.479,123.562 57.139 C 123.701 56.800,123.757 56.428,123.686 56.312 C 123.611 56.191,123.626 56.146,123.722 56.205 C 124.427 56.641,124.530 53.652,124.583 31.239 L 124.635 9.781 119.490 9.781 L 114.345 9.781 114.297 31.203 M195.110 34.907 L 195.110 60.034 200.169 60.034 L 205.228 60.034 205.228 49.831 L 205.228 39.629 216.273 39.629 L 227.319 39.629 227.319 49.831 L 227.319 60.034 232.378 60.034 L 237.437 60.034 237.437 34.907 L 237.437 9.781 232.378 9.781 L 227.319 9.781 227.319 19.815 L 227.319 29.848 216.273 29.848 L 205.228 29.848 205.228 19.815 L 205.228 9.781 200.169 9.781 L 195.110 9.781 195.110 34.907 M162.938 19.348 C 163.056 19.444,163.562 19.608,164.062 19.714 C 165.039 19.920,167.662 21.144,168.161 21.627 C 168.328 21.790,168.537 21.922,168.625 21.922 C 168.872 21.922,171.637 24.758,171.756 25.132 C 171.813 25.315,171.926 25.464,172.006 25.464 C 172.086 25.464,172.322 25.805,172.531 26.223 C 172.739 26.640,172.977 26.981,173.058 26.981 C 173.140 26.981,173.166 27.049,173.115 27.131 C 173.064 27.213,173.135 27.374,173.273 27.489 C 173.411 27.604,173.524 27.800,173.524 27.925 C 173.524 28.050,173.712 28.576,173.941 29.095 C 174.952 31.381,175.244 35.441,174.629 38.661 C 174.456 39.566,174.278 40.270,174.233 40.225 C 174.188 40.180,173.986 40.616,173.784 41.193 C 173.581 41.770,173.213 42.564,172.964 42.956 C 172.716 43.349,172.513 43.739,172.513 43.824 C 172.513 43.909,172.324 44.157,172.094 44.375 C 171.864 44.594,171.674 44.857,171.672 44.961 C 171.668 45.229,168.999 47.892,168.736 47.892 C 168.616 47.892,168.397 48.025,168.249 48.187 C 168.101 48.349,167.615 48.672,167.169 48.904 C 166.723 49.136,166.320 49.367,166.273 49.418 C 166.144 49.561,164.744 50.044,164.081 50.175 C 163.756 50.239,163.384 50.378,163.254 50.483 C 162.940 50.737,157.037 50.750,156.866 50.497 C 156.800 50.400,156.328 50.226,155.818 50.111 C 154.675 49.854,152.657 48.883,151.476 48.021 C 150.989 47.666,150.590 47.413,150.590 47.459 C 150.590 47.505,150.059 47.001,149.410 46.339 C 148.761 45.677,148.229 45.107,148.229 45.073 C 148.229 44.963,147.474 43.931,147.354 43.876 C 147.159 43.788,145.745 40.777,145.517 39.966 C 145.399 39.549,145.248 39.132,145.179 39.039 C 144.568 38.210,144.600 30.860,145.214 30.860 C 145.296 30.860,145.363 30.694,145.363 30.492 C 145.363 29.599,146.622 26.820,147.577 25.608 C 147.843 25.270,148.061 24.946,148.061 24.888 C 148.061 24.830,148.687 24.180,149.452 23.443 C 151.173 21.788,151.602 21.404,151.602 21.518 C 151.602 21.568,151.811 21.461,152.066 21.281 C 152.321 21.102,152.700 20.902,152.908 20.837 C 153.116 20.773,153.400 20.606,153.539 20.468 C 153.677 20.329,154.342 20.067,155.015 19.885 C 155.688 19.703,156.391 19.482,156.577 19.395 C 157.333 19.039,162.507 19.001,162.938 19.348 M109.949 100.506 L 109.949 126.644 115.116 126.644 L 120.283 126.644 120.202 112.057 C 120.153 103.363,120.182 97.470,120.273 97.470 C 120.358 97.470,120.824 97.888,121.311 98.398 C 121.797 98.908,122.280 99.325,122.384 99.325 C 122.488 99.325,122.731 99.527,122.925 99.773 C 123.118 100.019,123.502 100.387,123.778 100.591 C 124.053 100.794,124.235 101.004,124.182 101.057 C 124.129 101.110,124.257 101.245,124.467 101.357 C 124.815 101.543,125.312 101.980,127.174 103.732 C 127.532 104.069,127.825 104.310,127.825 104.267 C 127.825 104.224,128.156 104.518,128.560 104.919 C 128.965 105.321,129.654 105.953,130.092 106.324 C 130.849 106.966,132.150 108.168,133.659 109.621 C 134.039 109.987,134.397 110.287,134.454 110.287 C 134.549 110.287,135.191 110.872,137.709 113.254 C 138.208 113.727,138.617 114.083,138.617 114.044 C 138.617 114.006,139.077 114.416,139.639 114.955 C 140.202 115.495,140.738 115.915,140.832 115.890 C 140.926 115.864,140.960 115.913,140.908 115.998 C 140.855 116.083,140.982 116.264,141.190 116.401 C 141.398 116.538,141.921 116.983,142.353 117.389 C 142.784 117.796,143.597 118.546,144.159 119.056 C 144.721 119.566,145.634 120.401,146.188 120.911 C 146.742 121.421,147.545 122.142,147.973 122.513 C 148.401 122.884,149.127 123.536,149.586 123.963 C 150.046 124.390,150.422 124.716,150.422 124.688 C 150.422 124.660,150.687 124.911,151.012 125.245 C 151.336 125.579,151.602 125.806,151.602 125.750 C 151.602 125.693,151.998 126.061,152.482 126.567 C 152.966 127.073,153.451 127.487,153.558 127.487 C 153.666 127.487,153.960 127.757,154.212 128.087 C 154.531 128.505,154.780 128.671,155.033 128.635 L 155.396 128.583 155.396 102.361 L 155.396 76.138 150.284 76.094 C 146.857 76.064,145.206 76.105,145.277 76.220 C 145.335 76.314,145.314 76.391,145.231 76.391 C 145.037 76.391,144.990 88.660,145.184 88.780 C 145.349 88.882,145.435 105.902,145.271 105.902 C 145.054 105.902,144.365 105.269,144.469 105.166 C 144.528 105.107,144.478 105.059,144.359 105.059 C 144.240 105.059,143.862 104.774,143.518 104.427 C 143.175 104.079,142.292 103.253,141.556 102.591 C 140.821 101.929,139.911 101.094,139.534 100.736 C 139.157 100.377,138.179 99.477,137.361 98.735 C 136.543 97.993,135.516 97.045,135.080 96.627 C 134.644 96.210,133.806 95.451,133.218 94.941 C 132.630 94.431,131.490 93.377,130.683 92.600 C 129.877 91.823,129.164 91.201,129.100 91.218 C 129.035 91.235,128.760 90.969,128.488 90.627 C 128.216 90.284,127.993 90.046,127.993 90.098 C 127.993 90.149,127.624 89.837,127.172 89.404 C 126.385 88.650,125.180 87.531,122.726 85.276 C 122.102 84.702,121.126 83.796,120.558 83.263 C 119.990 82.730,119.496 82.293,119.460 82.293 C 119.425 82.293,118.933 81.838,118.368 81.282 C 117.802 80.725,117.307 80.270,117.266 80.270 C 117.226 80.270,116.748 79.833,116.205 79.300 C 115.661 78.767,115.155 78.293,115.079 78.246 C 114.910 78.142,113.272 76.657,112.572 75.972 C 111.465 74.890,110.744 74.368,110.355 74.368 L 109.949 74.368 109.949 100.506 M354.300 100.508 L 354.300 126.649 359.486 126.604 L 364.671 126.560 364.706 113.912 C 364.728 105.788,364.681 101.144,364.573 100.926 C 364.481 100.740,364.427 99.829,364.454 98.903 L 364.503 97.218 365.554 98.229 C 366.132 98.786,367.075 99.659,367.650 100.169 C 368.224 100.679,368.946 101.335,369.254 101.627 C 369.562 101.919,369.815 102.127,369.815 102.088 C 369.815 102.049,370.070 102.265,370.383 102.569 C 371.008 103.175,372.567 104.605,374.077 105.957 C 374.613 106.437,375.379 107.133,375.781 107.504 C 376.491 108.160,378.557 110.027,379.327 110.708 C 381.276 112.433,383.328 114.299,384.159 115.102 C 384.489 115.422,384.811 115.683,384.874 115.683 C 384.938 115.683,385.445 116.150,386.002 116.721 C 386.559 117.292,387.015 117.715,387.015 117.660 C 387.015 117.605,387.501 118.029,388.094 118.603 C 388.687 119.177,389.400 119.836,389.678 120.067 C 389.956 120.299,390.766 121.020,391.479 121.669 C 392.192 122.319,392.978 123.030,393.225 123.249 C 393.473 123.469,394.105 124.038,394.628 124.514 C 395.151 124.990,396.086 125.835,396.706 126.391 C 397.325 126.948,398.139 127.688,398.515 128.035 C 399.972 129.385,399.838 132.086,399.790 102.403 L 399.747 76.138 394.688 76.138 L 389.629 76.138 389.698 91.062 C 389.775 107.762,389.889 106.197,388.673 105.059 C 388.425 104.827,387.674 104.144,387.004 103.541 C 386.334 102.938,385.379 102.057,384.883 101.582 C 384.386 101.107,383.980 100.738,383.980 100.761 C 383.980 100.785,383.686 100.528,383.327 100.191 C 382.969 99.854,382.046 99.009,381.278 98.314 C 379.565 96.763,377.735 95.068,376.863 94.224 C 376.504 93.876,376.137 93.592,376.047 93.592 C 375.958 93.592,375.885 93.478,375.885 93.339 C 375.885 93.200,375.819 93.086,375.737 93.086 C 375.656 93.086,375.191 92.707,374.705 92.243 C 374.219 91.779,373.750 91.400,373.663 91.400 C 373.576 91.400,373.551 91.324,373.609 91.231 C 373.666 91.138,373.629 91.062,373.526 91.062 C 373.423 91.062,372.918 90.664,372.405 90.177 C 370.914 88.764,370.104 88.006,369.039 87.029 C 368.492 86.526,367.544 85.653,366.933 85.089 C 366.321 84.525,365.112 83.419,364.245 82.631 C 363.378 81.842,362.388 80.913,362.045 80.565 C 361.703 80.217,361.385 79.933,361.339 79.933 C 361.294 79.933,360.798 79.496,360.239 78.963 C 359.268 78.038,357.355 76.279,355.902 74.975 C 355.475 74.591,355.058 74.369,354.764 74.368 L 354.300 74.368 354.300 100.508 M315.051 75.922 C 314.286 76.013,313.702 76.156,313.754 76.239 C 313.806 76.323,313.673 76.397,313.459 76.404 C 312.583 76.432,310.574 76.981,310.020 77.343 C 309.827 77.469,309.281 77.688,308.806 77.829 C 308.330 77.971,307.843 78.179,307.723 78.293 C 307.603 78.406,307.125 78.683,306.661 78.907 C 306.197 79.131,305.757 79.415,305.683 79.539 C 305.609 79.663,305.456 79.764,305.344 79.764 C 305.232 79.764,304.934 79.955,304.681 80.189 C 304.429 80.423,304.181 80.611,304.131 80.606 C 303.979 80.591,303.214 81.163,302.607 81.745 C 302.292 82.047,301.955 82.293,301.856 82.293 C 301.758 82.293,301.606 82.483,301.518 82.715 C 301.430 82.947,301.253 83.137,301.125 83.137 C 300.998 83.137,300.560 83.562,300.152 84.083 C 299.744 84.604,299.166 85.294,298.869 85.617 C 298.571 85.940,298.230 86.425,298.111 86.694 C 297.992 86.963,297.842 87.184,297.778 87.184 C 297.715 87.184,297.492 87.525,297.284 87.943 C 297.075 88.360,296.834 88.702,296.748 88.702 C 296.662 88.702,296.636 88.819,296.692 88.963 C 296.747 89.107,296.726 89.184,296.645 89.134 C 296.485 89.035,295.784 90.535,295.784 90.977 C 295.784 91.128,295.720 91.211,295.642 91.163 C 295.564 91.115,295.322 91.622,295.105 92.291 C 294.887 92.960,294.644 93.596,294.563 93.704 C 294.367 93.968,293.761 97.018,293.761 97.740 C 293.761 98.055,293.687 98.314,293.597 98.314 C 293.508 98.314,293.438 98.636,293.442 99.030 C 293.455 100.350,293.456 103.450,293.443 104.082 C 293.436 104.425,293.505 104.752,293.596 104.808 C 293.686 104.864,293.761 105.114,293.761 105.364 C 293.762 106.035,294.425 109.332,294.581 109.437 C 294.654 109.487,294.893 110.115,295.111 110.833 C 295.329 111.550,295.544 112.101,295.589 112.056 C 295.634 112.011,295.858 112.448,296.086 113.028 C 296.315 113.607,296.644 114.238,296.818 114.429 C 296.991 114.621,297.133 114.861,297.133 114.964 C 297.133 115.067,297.381 115.480,297.683 115.881 C 297.985 116.282,298.359 116.800,298.514 117.032 C 298.669 117.264,299.175 117.859,299.639 118.354 C 300.102 118.850,300.525 119.369,300.579 119.509 C 300.632 119.648,300.825 119.801,301.007 119.849 C 301.189 119.896,301.383 120.079,301.439 120.254 C 301.495 120.430,301.602 120.573,301.677 120.573 C 301.751 120.573,302.103 120.839,302.457 121.164 C 302.811 121.488,303.143 121.755,303.195 121.757 C 303.246 121.759,303.591 122.024,303.961 122.347 C 304.331 122.670,304.699 122.934,304.780 122.934 C 304.860 122.934,305.240 123.143,305.625 123.398 C 306.009 123.653,306.627 124.013,306.998 124.199 C 307.369 124.384,307.697 124.589,307.726 124.653 C 307.755 124.716,308.286 124.936,308.906 125.141 C 309.526 125.346,310.073 125.573,310.121 125.646 C 310.232 125.814,312.469 126.411,313.575 126.568 C 314.039 126.633,314.525 126.772,314.655 126.876 C 315.007 127.159,323.013 127.139,323.297 126.855 C 323.413 126.739,323.701 126.644,323.938 126.644 C 324.454 126.644,327.811 125.845,328.066 125.662 C 328.165 125.591,328.690 125.355,329.232 125.138 C 329.774 124.921,330.723 124.455,331.340 124.101 C 331.957 123.748,332.823 123.264,333.263 123.025 C 333.704 122.787,334.066 122.536,334.069 122.468 C 334.071 122.400,334.371 122.160,334.735 121.936 C 335.099 121.711,335.358 121.464,335.311 121.388 C 335.263 121.311,335.326 121.248,335.450 121.248 C 335.744 121.248,337.801 119.308,337.659 119.165 C 337.598 119.105,337.667 119.056,337.811 119.056 C 337.955 119.056,338.195 118.868,338.345 118.640 C 338.495 118.411,338.847 117.974,339.128 117.670 C 339.409 117.365,339.741 117.003,339.865 116.863 C 340.257 116.426,341.653 114.100,341.653 113.883 C 341.653 113.769,341.756 113.615,341.882 113.541 C 342.130 113.396,342.833 111.909,342.833 111.530 C 342.833 111.403,342.913 111.298,343.012 111.298 C 343.110 111.298,343.143 111.223,343.086 111.130 C 343.029 111.037,343.048 110.961,343.128 110.961 C 343.208 110.961,343.416 110.415,343.589 109.748 C 343.762 109.081,344.002 108.338,344.122 108.097 C 345.089 106.158,345.026 97.796,344.020 94.772 C 343.851 94.262,343.578 93.371,343.414 92.791 C 343.251 92.211,343.063 91.737,342.998 91.737 C 342.932 91.737,342.712 91.282,342.509 90.725 C 342.306 90.169,342.081 89.713,342.009 89.713 C 341.937 89.713,341.673 89.277,341.422 88.744 C 340.883 87.600,340.034 86.367,339.035 85.279 C 338.847 85.075,338.476 84.621,338.210 84.270 C 337.944 83.920,337.687 83.673,337.639 83.722 C 337.590 83.770,337.412 83.583,337.243 83.305 C 337.074 83.027,336.874 82.799,336.799 82.799 C 336.724 82.799,336.182 82.344,335.596 81.788 C 335.009 81.231,334.452 80.776,334.357 80.776 C 334.263 80.776,334.101 80.667,333.998 80.534 C 333.895 80.401,333.455 80.106,333.020 79.878 C 332.584 79.650,332.261 79.431,332.301 79.391 C 332.341 79.351,331.957 79.146,331.448 78.935 C 330.939 78.724,330.523 78.488,330.523 78.412 C 330.523 78.335,330.238 78.179,329.890 78.066 C 329.543 77.952,328.879 77.688,328.415 77.477 C 327.356 76.997,326.097 76.602,325.169 76.459 C 324.774 76.398,324.452 76.298,324.452 76.238 C 324.452 76.177,324.281 76.111,324.073 76.092 C 323.864 76.072,323.276 75.987,322.766 75.903 C 321.543 75.701,316.809 75.713,315.051 75.922 M268.845 76.005 C 268.451 76.043,268.128 76.145,268.128 76.232 C 268.128 76.320,267.915 76.391,267.654 76.391 C 266.435 76.391,262.296 77.838,261.889 78.407 C 261.842 78.471,261.485 78.702,261.095 78.918 C 260.704 79.135,260.424 79.376,260.472 79.454 C 260.520 79.532,260.455 79.595,260.327 79.595 C 260.199 79.595,259.579 80.126,258.949 80.776 C 258.320 81.425,257.868 81.956,257.945 81.956 C 258.022 81.956,257.915 82.075,257.708 82.221 C 257.500 82.366,257.365 82.542,257.408 82.612 C 257.451 82.681,257.313 82.924,257.102 83.152 C 256.891 83.380,256.578 83.944,256.408 84.405 C 256.237 84.867,256.040 85.321,255.971 85.415 C 255.415 86.162,254.972 91.441,255.306 93.339 C 255.387 93.803,255.498 94.422,255.551 94.714 C 255.678 95.409,256.791 97.780,257.192 98.211 C 257.364 98.395,257.504 98.612,257.504 98.693 C 257.504 98.922,258.748 100.246,259.646 100.973 C 260.827 101.929,261.186 102.177,262.015 102.609 C 262.502 102.863,262.901 103.134,262.901 103.210 C 262.901 103.287,263.071 103.402,263.280 103.465 C 263.489 103.528,264.228 103.863,264.924 104.209 C 265.620 104.555,266.398 104.889,266.653 104.952 C 266.908 105.014,267.116 105.134,267.116 105.217 C 267.116 105.301,267.363 105.422,267.664 105.487 C 267.966 105.551,268.288 105.660,268.381 105.729 C 268.474 105.797,268.910 105.957,269.351 106.083 C 269.791 106.210,270.152 106.358,270.152 106.414 C 270.152 106.469,270.588 106.694,271.121 106.912 C 271.655 107.131,272.129 107.354,272.175 107.407 C 272.222 107.460,272.560 107.656,272.926 107.841 C 273.293 108.027,273.862 108.425,274.191 108.726 C 274.520 109.027,274.846 109.274,274.916 109.274 C 274.985 109.275,275.042 109.359,275.042 109.461 C 275.042 109.564,275.218 109.786,275.433 109.955 C 275.648 110.124,275.925 110.571,276.050 110.949 C 276.175 111.327,276.340 111.636,276.418 111.636 C 276.496 111.636,276.560 112.167,276.560 112.816 C 276.560 113.465,276.496 113.997,276.418 113.997 C 276.340 113.997,276.190 114.284,276.085 114.635 C 275.610 116.219,273.575 117.520,271.121 117.808 C 270.588 117.870,270.152 117.968,270.152 118.025 C 270.152 118.168,267.659 118.137,267.514 117.992 C 267.450 117.928,267.212 117.875,266.985 117.875 C 266.335 117.875,263.746 117.209,263.081 116.870 C 262.750 116.702,262.156 116.467,261.762 116.350 C 261.368 116.232,261.046 116.067,261.046 115.984 C 261.046 115.900,260.970 115.879,260.877 115.936 C 260.784 115.993,260.708 115.978,260.708 115.903 C 260.708 115.827,260.315 115.585,259.833 115.364 C 259.352 115.143,258.807 114.821,258.621 114.648 C 258.436 114.475,258.199 114.334,258.094 114.334 C 257.990 114.334,257.728 114.169,257.512 113.968 C 257.063 113.550,256.866 113.694,256.393 114.786 C 256.265 115.081,256.083 115.370,255.989 115.428 C 255.895 115.486,255.615 115.966,255.365 116.494 C 255.116 117.022,254.829 117.537,254.727 117.640 C 254.625 117.742,254.393 118.159,254.210 118.566 C 254.028 118.973,253.746 119.439,253.583 119.602 C 253.421 119.765,253.288 119.995,253.288 120.113 C 253.288 120.230,253.088 120.622,252.843 120.983 C 252.411 121.618,252.407 121.646,252.716 121.868 C 252.892 121.994,253.167 122.208,253.327 122.343 C 253.488 122.477,254.019 122.790,254.508 123.036 C 254.996 123.283,255.434 123.531,255.481 123.589 C 255.607 123.745,257.965 124.791,259.022 125.159 C 259.532 125.336,260.184 125.589,260.471 125.721 C 260.758 125.853,261.858 126.121,262.916 126.318 C 263.974 126.514,264.954 126.729,265.093 126.795 C 265.782 127.123,273.703 127.193,274.386 126.878 C 274.608 126.775,275.358 126.562,276.054 126.403 C 277.377 126.102,278.272 125.809,278.415 125.630 C 278.461 125.572,278.826 125.396,279.226 125.239 C 279.625 125.081,280.043 124.876,280.153 124.782 C 280.264 124.688,280.731 124.368,281.192 124.070 C 282.211 123.411,284.574 121.091,284.732 120.595 C 284.794 120.398,284.907 120.236,284.982 120.236 C 285.057 120.236,285.289 119.838,285.498 119.351 C 285.706 118.864,285.944 118.422,286.026 118.370 C 286.335 118.173,287.051 114.884,287.140 113.257 C 287.257 111.109,286.694 107.121,286.186 106.510 C 286.087 106.390,286.045 106.254,286.093 106.206 C 286.141 106.158,286.064 106.023,285.923 105.906 C 285.782 105.788,285.666 105.558,285.666 105.394 C 285.666 104.626,282.080 100.607,281.718 100.969 C 281.663 101.024,281.619 100.986,281.619 100.885 C 281.619 100.784,281.334 100.528,280.987 100.314 C 280.639 100.101,280.278 99.867,280.185 99.794 C 279.925 99.589,277.346 98.314,277.191 98.314 C 277.116 98.314,276.773 98.188,276.428 98.034 C 276.083 97.880,275.763 97.740,275.717 97.723 C 275.670 97.707,275.367 97.575,275.042 97.431 C 274.718 97.286,274.129 97.072,273.735 96.955 C 273.341 96.838,273.019 96.689,273.019 96.623 C 273.019 96.558,272.544 96.332,271.965 96.122 C 271.385 95.911,270.873 95.685,270.826 95.620 C 270.780 95.554,270.335 95.297,269.839 95.050 C 266.597 93.434,265.241 91.103,266.009 88.463 C 266.294 87.482,267.377 86.172,267.903 86.172 C 268.027 86.172,268.128 86.098,268.128 86.008 C 268.128 85.043,276.870 85.045,277.572 86.010 C 277.618 86.074,278.206 86.299,278.879 86.510 C 279.551 86.721,280.101 86.945,280.101 87.007 C 280.101 87.070,280.594 87.296,281.197 87.508 C 281.800 87.721,282.293 87.953,282.293 88.023 C 282.293 88.230,283.828 88.753,283.970 88.594 C 284.041 88.514,284.276 88.012,284.492 87.479 C 284.708 86.946,284.937 86.509,285.000 86.509 C 285.108 86.509,285.733 85.056,285.745 84.775 C 285.748 84.702,285.864 84.570,286.003 84.482 C 286.142 84.394,286.180 84.320,286.088 84.317 C 285.986 84.314,285.991 84.263,286.101 84.188 C 286.200 84.120,286.461 83.628,286.680 83.094 C 286.898 82.561,287.139 82.125,287.215 82.125 C 287.291 82.125,287.339 82.068,287.323 81.998 C 287.307 81.929,287.394 81.665,287.516 81.413 C 287.801 80.827,287.656 80.646,286.387 80.009 C 285.851 79.741,285.322 79.433,285.210 79.325 C 285.098 79.217,284.624 78.991,284.156 78.823 C 283.688 78.655,283.305 78.462,283.305 78.395 C 283.305 78.327,283.021 78.182,282.673 78.071 C 282.325 77.960,281.547 77.660,280.944 77.403 C 280.317 77.137,279.019 76.805,277.909 76.628 C 276.842 76.458,275.932 76.270,275.885 76.212 C 275.778 76.076,275.835 76.080,272.428 76.002 C 270.852 75.966,269.239 75.968,268.845 76.005 M168.073 76.166 C 168.010 76.228,167.960 87.611,167.960 101.461 L 167.960 126.644 185.750 126.644 L 203.541 126.644 203.541 121.669 L 203.541 116.695 190.894 116.695 L 178.246 116.695 178.246 111.467 L 178.246 106.239 188.954 106.239 L 199.663 106.239 199.663 101.265 C 199.663 98.529,199.606 96.299,199.536 96.310 C 199.467 96.321,194.648 96.321,188.828 96.310 L 178.246 96.290 178.246 91.231 L 178.246 86.172 190.390 86.172 L 202.535 86.172 202.490 81.155 L 202.445 76.138 185.316 76.095 C 175.894 76.072,168.135 76.103,168.073 76.166 M213.322 101.345 L 213.322 126.644 230.190 126.644 L 247.057 126.644 247.044 121.669 L 247.030 116.695 235.235 116.695 L 223.440 116.695 223.420 96.501 C 223.409 85.394,223.408 76.254,223.417 76.190 C 223.426 76.125,221.159 76.066,218.378 76.059 L 213.322 76.045 213.322 101.345 M321.042 85.680 C 321.942 85.780,322.726 85.939,322.783 86.032 C 322.841 86.125,322.955 86.194,323.037 86.185 C 323.395 86.148,325.615 86.907,325.534 87.038 C 325.484 87.118,325.546 87.184,325.671 87.184 C 326.028 87.184,327.158 87.807,327.414 88.144 C 327.541 88.311,327.648 88.392,327.651 88.324 C 327.657 88.165,328.175 88.578,329.204 89.564 C 329.651 89.992,330.017 90.297,330.017 90.241 C 330.017 90.121,331.127 91.686,331.643 92.534 C 331.841 92.861,332.076 93.175,332.165 93.233 C 332.254 93.291,332.531 93.870,332.780 94.519 C 333.028 95.169,333.300 95.823,333.383 95.973 C 334.417 97.847,334.404 105.776,333.364 107.029 C 333.270 107.143,333.241 107.316,333.301 107.413 C 333.360 107.509,333.343 107.589,333.262 107.589 C 333.181 107.589,332.935 108.025,332.717 108.558 C 332.498 109.091,332.265 109.566,332.198 109.612 C 332.132 109.659,331.910 110.019,331.705 110.413 C 331.500 110.807,331.264 111.130,331.180 111.130 C 331.097 111.130,331.029 111.226,331.029 111.343 C 331.029 111.527,329.083 113.659,328.914 113.659 C 328.880 113.659,328.650 113.840,328.403 114.062 C 327.375 114.985,327.208 115.107,326.562 115.414 C 326.190 115.590,325.779 115.756,325.649 115.782 C 325.519 115.808,325.368 115.901,325.312 115.989 C 325.197 116.171,323.873 116.643,323.090 116.781 C 322.802 116.832,322.478 116.890,322.371 116.911 C 322.263 116.931,322.123 117.021,322.058 117.111 C 321.874 117.369,316.824 117.334,316.737 117.074 C 316.698 116.958,316.472 116.863,316.235 116.863 C 315.666 116.863,313.435 116.197,313.303 115.987 C 313.246 115.897,313.151 115.830,313.091 115.839 C 312.865 115.873,310.961 114.827,310.961 114.669 C 310.961 114.577,310.847 114.503,310.706 114.503 C 310.371 114.503,306.914 111.041,306.914 110.705 C 306.914 110.562,306.801 110.401,306.662 110.348 C 306.523 110.295,306.452 110.183,306.503 110.100 C 306.555 110.017,306.529 109.949,306.447 109.949 C 306.365 109.949,306.114 109.551,305.891 109.064 C 305.667 108.577,305.424 108.135,305.351 108.082 C 305.278 108.028,305.066 107.421,304.880 106.733 C 304.693 106.044,304.468 105.350,304.380 105.190 C 304.188 104.844,303.870 101.461,303.962 100.750 C 303.998 100.477,304.076 99.665,304.136 98.946 C 304.196 98.227,304.306 97.639,304.380 97.639 C 304.455 97.639,304.567 97.355,304.631 97.007 C 304.775 96.214,305.272 94.718,305.432 94.598 C 305.498 94.548,305.706 94.160,305.894 93.735 C 306.082 93.310,306.350 92.867,306.490 92.750 C 306.631 92.634,306.745 92.469,306.745 92.384 C 306.745 92.183,307.360 91.348,308.052 90.611 C 308.354 90.289,308.600 89.956,308.600 89.870 C 308.600 89.784,308.700 89.713,308.823 89.713 C 308.945 89.713,309.200 89.543,309.389 89.334 C 309.848 88.828,310.793 88.033,310.793 88.153 C 310.793 88.205,310.925 88.133,311.088 87.993 C 311.250 87.854,311.648 87.604,311.973 87.439 C 313.621 86.603,313.889 86.478,314.143 86.427 C 314.921 86.272,315.439 86.106,315.518 85.988 C 315.608 85.852,317.647 85.557,318.767 85.519 C 319.119 85.507,320.142 85.580,321.042 85.680 M230.396 162.180 C 230.744 162.217,231.313 162.217,231.661 162.180 C 232.009 162.144,231.724 162.114,231.029 162.114 C 230.333 162.114,230.048 162.144,230.396 162.180 " stroke="none" fill="#ec3c3b" fill-rule="evenodd"></path><path id="path1" d="M31.029 0.285 C 29.645 0.389,26.618 0.857,26.334 1.010 C 26.180 1.093,25.371 1.326,24.536 1.527 C 23.702 1.729,22.715 2.027,22.344 2.190 C 20.715 2.906,20.380 3.035,20.160 3.035 C 20.032 3.035,19.902 3.099,19.871 3.176 C 19.840 3.253,19.397 3.518,18.887 3.766 C 17.179 4.593,14.503 6.198,14.503 6.394 C 14.503 6.452,14.232 6.646,13.901 6.824 C 13.570 7.002,13.226 7.285,13.136 7.453 C 13.046 7.620,12.862 7.757,12.727 7.757 C 12.395 7.757,8.214 11.927,7.861 12.610 C 7.706 12.909,7.512 13.153,7.429 13.153 C 7.347 13.153,7.105 13.435,6.892 13.780 C 6.679 14.124,6.402 14.523,6.277 14.665 C 5.487 15.565,2.698 20.692,2.698 21.244 C 2.698 21.333,2.509 21.820,2.278 22.324 C 2.047 22.829,1.689 23.951,1.481 24.817 C 1.273 25.683,1.053 26.429,0.990 26.476 C 0.296 26.991,-0.322 109.378,0.336 113.744 C 0.651 115.834,3.150 119.730,4.176 119.730 C 4.266 119.730,4.523 119.875,4.748 120.052 C 6.087 121.105,6.468 121.142,16.902 121.209 L 26.469 121.270 26.514 142.007 C 26.546 156.550,26.614 162.780,26.741 162.865 C 26.841 162.931,27.021 163.345,27.142 163.784 C 27.263 164.224,27.542 164.778,27.762 165.016 C 27.982 165.253,28.162 165.509,28.162 165.584 C 28.162 166.057,30.417 167.685,31.619 168.081 C 36.176 169.582,41.821 166.304,41.821 162.157 C 41.821 161.928,41.897 161.693,41.990 161.636 C 42.101 161.567,42.159 154.639,42.159 141.400 L 42.159 121.268 51.644 121.204 C 61.530 121.137,62.330 121.080,63.213 120.372 C 63.366 120.249,63.787 119.998,64.150 119.814 C 64.784 119.492,65.766 118.614,66.573 117.647 C 67.382 116.679,68.145 114.710,68.306 113.177 C 68.510 111.237,68.503 35.786,68.298 32.378 C 68.212 30.940,68.090 29.403,68.027 28.963 L 67.914 28.162 67.206 28.162 C 66.817 28.162,66.442 28.106,66.374 28.038 C 66.305 27.969,66.160 27.908,66.050 27.903 C 65.198 27.858,62.226 27.007,62.226 26.808 C 62.226 26.738,61.941 26.559,61.594 26.410 C 61.246 26.261,60.753 25.973,60.500 25.770 L 60.038 25.401 59.656 25.743 C 58.612 26.679,56.887 27.370,54.285 27.894 C 54.154 27.921,53.917 27.999,53.758 28.068 C 53.458 28.198,52.005 28.121,51.265 27.936 C 51.033 27.878,50.616 27.785,50.337 27.729 C 49.182 27.496,47.701 26.971,47.063 26.569 C 46.688 26.332,46.333 26.138,46.275 26.138 C 45.764 26.138,42.630 22.740,42.301 21.830 C 42.185 21.510,42.039 21.248,41.976 21.248 C 40.956 21.248,40.426 15.453,41.205 12.816 C 41.924 10.380,41.922 10.416,41.346 10.077 C 40.774 9.741,39.723 8.749,39.165 8.020 C 38.957 7.746,38.786 7.594,38.786 7.681 C 38.786 7.768,38.587 7.460,38.344 6.997 C 38.101 6.534,37.806 6.041,37.689 5.902 C 37.572 5.763,37.309 5.118,37.105 4.469 C 36.901 3.820,36.668 3.163,36.588 3.009 C 36.508 2.856,36.390 2.154,36.326 1.449 L 36.210 0.169 33.999 0.198 C 32.783 0.214,31.446 0.253,31.029 0.285 M19.004 29.300 L 18.634 30.101 18.590 64.412 C 18.544 101.015,18.522 99.949,19.310 100.736 C 19.448 100.875,19.562 101.035,19.562 101.093 C 19.562 101.755,21.694 103.410,23.040 103.792 C 23.585 103.947,24.263 104.144,24.548 104.229 C 25.236 104.435,26.307 104.427,26.307 104.216 C 26.307 104.123,26.459 104.047,26.644 104.047 C 27.264 104.047,26.992 104.302,25.927 104.718 C 25.348 104.945,24.823 105.203,24.762 105.292 C 24.618 105.499,21.592 105.503,21.444 105.296 C 21.382 105.210,20.904 104.966,20.381 104.754 C 18.650 104.051,17.038 102.081,16.698 100.253 C 16.563 99.524,16.524 89.843,16.560 65.683 C 16.614 29.871,16.575 31.485,17.395 30.666 C 17.566 30.495,17.707 30.266,17.707 30.158 C 17.707 29.949,19.059 28.503,19.257 28.500 C 19.321 28.500,19.207 28.860,19.004 29.300 M43.152 29.669 L 42.660 30.839 42.705 64.956 L 42.749 99.073 43.291 100.111 C 43.589 100.682,44.025 101.357,44.260 101.611 C 44.496 101.865,44.688 102.136,44.688 102.213 C 44.688 102.289,44.908 102.466,45.178 102.606 C 45.447 102.745,45.780 102.971,45.916 103.107 C 46.407 103.598,48.160 104.047,49.587 104.047 C 51.246 104.047,51.313 104.299,49.789 104.805 C 49.224 104.992,48.705 105.202,48.636 105.271 C 48.471 105.435,46.038 105.434,46.036 105.270 C 46.035 105.200,45.582 105.002,45.030 104.830 C 43.957 104.496,43.153 103.899,42.075 102.637 C 41.608 102.090,40.978 100.529,40.978 99.919 C 40.978 99.696,40.902 99.467,40.809 99.410 C 40.546 99.247,40.579 33.350,40.843 33.086 C 40.954 32.975,40.997 32.884,40.937 32.884 C 40.462 32.884,41.758 30.144,42.672 29.216 C 43.640 28.232,43.723 28.310,43.152 29.669 M38.916 142.502 C 38.883 156.862,38.818 162.440,38.683 162.527 C 38.580 162.593,38.377 162.875,38.233 163.153 C 37.800 163.988,36.723 164.846,35.819 165.078 C 35.364 165.194,34.804 165.365,34.574 165.458 C 34.286 165.574,34.139 165.570,34.097 165.444 C 34.063 165.343,33.866 165.261,33.658 165.261 C 32.321 165.261,30.727 164.101,29.979 162.583 L 29.595 161.804 29.550 142.201 L 29.504 122.597 34.233 122.597 L 38.961 122.597 38.916 142.502 M126.344 151.107 C 125.947 151.185,125.404 151.404,125.138 151.594 C 124.871 151.784,124.596 151.939,124.527 151.939 C 124.240 151.939,123.267 153.142,122.741 154.148 L 122.175 155.228 122.175 158.108 C 122.175 160.955,122.181 161.000,122.666 161.959 C 123.186 162.985,124.307 164.250,124.697 164.250 C 124.825 164.250,124.957 164.332,124.991 164.433 C 125.255 165.226,130.732 165.224,130.996 164.432 C 131.029 164.331,131.146 164.250,131.255 164.250 C 131.642 164.250,132.882 162.861,133.078 162.208 C 133.186 161.847,133.342 161.551,133.425 161.551 C 133.509 161.551,133.554 161.191,133.525 160.750 L 133.474 159.949 131.908 159.901 C 130.185 159.847,129.848 159.991,129.848 160.781 C 129.848 162.517,126.364 162.505,126.038 160.768 C 125.979 160.455,125.864 160.157,125.782 160.106 C 125.067 159.664,125.956 154.622,126.828 154.176 C 127.822 153.667,129.374 154.039,129.679 154.859 C 130.208 156.281,129.986 156.155,131.960 156.155 L 133.742 156.155 133.624 155.528 C 133.306 153.832,132.145 152.118,131.071 151.759 C 130.769 151.658,130.523 151.514,130.523 151.438 C 130.523 151.064,127.696 150.840,126.344 151.107 M154.626 151.084 C 153.186 151.366,151.364 152.901,150.909 154.216 C 150.781 154.587,150.600 154.944,150.507 155.011 C 150.270 155.179,150.285 160.540,150.523 161.061 C 150.626 161.284,150.871 161.828,151.069 162.268 C 151.267 162.709,151.493 163.069,151.571 163.069 C 151.650 163.069,151.813 163.254,151.933 163.480 C 152.054 163.705,152.371 163.980,152.636 164.090 C 152.902 164.200,153.120 164.350,153.120 164.422 C 153.120 164.898,156.135 165.237,157.705 164.938 C 159.759 164.546,161.487 162.847,161.731 160.979 C 161.872 159.893,161.836 159.871,159.915 159.868 L 158.363 159.865 158.247 160.497 C 157.983 161.930,155.763 162.654,154.669 161.664 C 153.925 160.991,153.713 156.456,154.356 154.965 C 155.097 153.248,157.835 153.701,158.254 155.610 L 158.374 156.155 160.131 156.155 C 161.098 156.155,161.888 156.136,161.888 156.113 C 161.844 154.205,160.151 151.602,158.954 151.602 C 158.821 151.602,158.687 151.528,158.657 151.437 C 158.523 151.044,155.971 150.821,154.626 151.084 M316.768 151.071 C 312.413 151.855,311.591 156.583,315.464 158.576 C 315.761 158.728,316.121 158.853,316.265 158.853 C 316.409 158.853,316.526 158.915,316.526 158.991 C 316.526 159.067,316.962 159.265,317.496 159.430 C 319.836 160.158,320.523 161.242,319.167 162.068 C 318.089 162.725,316.665 162.172,316.211 160.919 L 315.951 160.202 314.193 160.202 L 312.435 160.202 312.548 161.054 C 313.206 166.010,322.755 166.671,323.363 161.803 C 323.621 159.740,322.546 157.956,320.608 157.229 C 320.172 157.065,319.777 156.888,319.730 156.836 C 319.684 156.783,319.098 156.567,318.429 156.356 C 316.750 155.825,316.131 155.033,316.840 154.323 C 317.677 153.487,319.485 153.869,319.795 154.948 L 319.948 155.481 321.694 155.481 C 323.686 155.481,323.680 155.487,323.207 153.918 C 322.577 151.823,319.687 150.546,316.768 151.071 M328.269 151.122 C 327.818 151.208,327.338 151.390,327.203 151.525 C 327.068 151.660,326.849 151.771,326.717 151.771 C 326.313 151.771,325.156 152.939,325.041 153.464 C 324.981 153.736,324.862 154.002,324.776 154.055 C 323.577 154.796,326.363 158.853,328.071 158.853 C 328.214 158.853,328.331 158.924,328.331 159.010 C 328.331 159.096,328.767 159.291,329.300 159.444 C 331.597 160.100,332.336 161.380,330.846 162.123 C 329.619 162.735,327.825 161.729,327.825 160.429 C 327.825 160.254,327.426 160.202,326.054 160.202 L 324.283 160.202 324.284 160.666 C 324.286 161.387,324.616 162.403,324.972 162.786 C 325.150 162.977,325.299 163.213,325.304 163.312 C 325.317 163.559,326.756 164.484,327.573 164.769 C 328.950 165.250,333.221 164.975,333.221 164.405 C 333.221 164.320,333.332 164.250,333.468 164.250 C 334.418 164.250,335.411 162.035,335.154 160.490 C 334.819 158.474,333.751 157.621,329.744 156.167 C 328.051 155.553,327.835 154.369,329.343 153.963 C 330.421 153.672,331.424 154.126,331.595 154.981 L 331.695 155.481 333.480 155.481 L 335.265 155.481 335.148 154.680 C 334.736 151.877,331.925 150.423,328.269 151.122 M356.400 151.089 C 355.223 151.342,352.951 152.975,352.951 153.569 C 352.951 153.680,352.826 153.895,352.673 154.048 C 351.766 154.955,351.693 161.300,352.583 161.874 C 352.668 161.928,352.790 162.142,352.855 162.350 C 352.999 162.812,354.411 164.250,354.721 164.250 C 354.845 164.250,354.974 164.331,355.007 164.432 C 355.280 165.250,359.952 165.207,360.984 164.376 C 363.402 162.432,363.821 161.491,363.817 158.010 L 363.814 155.396 363.258 154.322 C 361.933 151.760,359.227 150.484,356.400 151.089 M108.769 151.427 C 108.769 151.616,108.698 151.771,108.612 151.771 C 108.526 151.771,108.333 152.207,108.184 152.740 C 108.034 153.274,107.731 154.127,107.511 154.637 C 107.290 155.148,106.979 156.020,106.819 156.577 C 106.659 157.133,106.433 157.740,106.317 157.926 C 106.201 158.111,105.977 158.718,105.819 159.275 C 105.662 159.831,105.474 160.363,105.402 160.455 C 105.296 160.592,104.876 161.715,104.802 162.057 C 104.693 162.567,104.287 163.680,104.184 163.752 C 104.112 163.803,104.004 164.088,103.944 164.384 L 103.836 164.924 105.779 164.924 L 107.721 164.924 108.049 163.702 L 108.377 162.479 110.395 162.432 L 112.413 162.385 112.770 163.275 C 112.966 163.765,113.176 164.336,113.236 164.545 C 113.386 165.067,117.032 165.148,117.032 164.629 C 117.032 164.339,116.507 162.805,116.181 162.142 C 116.090 161.956,115.826 161.205,115.596 160.472 C 115.365 159.739,115.111 159.056,115.031 158.954 C 114.952 158.852,114.716 158.200,114.509 157.504 C 114.301 156.809,114.080 156.202,114.019 156.155 C 113.957 156.109,113.729 155.502,113.511 154.806 C 113.292 154.110,113.047 153.458,112.966 153.357 C 112.885 153.255,112.682 152.724,112.516 152.176 L 112.213 151.180 110.491 151.132 C 108.856 151.087,108.769 151.102,108.769 151.427 M134.739 158.010 L 134.739 164.924 139.292 164.924 L 143.845 164.924 143.845 163.491 L 143.845 162.057 141.062 162.057 L 138.280 162.057 138.280 156.577 L 138.280 151.096 136.509 151.096 L 134.739 151.096 134.739 158.010 M145.108 151.476 C 145.057 151.684,145.037 154.777,145.063 158.347 L 145.110 164.840 146.922 164.888 L 148.735 164.936 148.735 158.016 L 148.735 151.096 146.968 151.096 C 145.275 151.096,145.196 151.112,145.108 151.476 M162.901 158.010 L 162.901 164.924 164.671 164.924 L 166.442 164.924 166.446 163.196 L 166.451 161.467 167.057 160.815 C 167.713 160.109,167.758 160.122,168.219 161.155 C 168.349 161.447,168.553 161.789,168.672 161.914 C 168.791 162.039,169.072 162.540,169.296 163.027 C 169.520 163.514,169.759 163.912,169.827 163.912 C 169.895 163.912,170.030 164.140,170.127 164.418 L 170.303 164.924 172.420 164.924 C 174.711 164.924,174.845 164.860,174.223 164.062 C 174.050 163.840,173.774 163.394,173.609 163.069 C 173.444 162.745,173.253 162.441,173.186 162.395 C 173.118 162.348,172.853 161.893,172.597 161.383 C 172.341 160.873,172.084 160.417,172.026 160.371 C 171.873 160.248,170.819 158.528,170.478 157.844 C 170.188 157.263,170.404 156.586,171.019 156.151 C 171.161 156.051,172.007 154.827,172.007 154.722 C 172.007 154.684,172.188 154.451,172.409 154.204 C 173.333 153.174,173.454 153.025,173.756 152.536 C 173.929 152.254,174.176 151.963,174.304 151.889 C 175.216 151.360,174.563 151.096,172.344 151.096 C 170.541 151.096,170.152 151.140,170.152 151.341 C 170.152 151.475,170.054 151.646,169.934 151.720 C 169.726 151.849,167.960 154.370,167.960 154.539 C 167.960 154.583,167.770 154.825,167.538 155.075 C 167.306 155.325,167.116 155.621,167.116 155.732 C 167.116 155.843,166.965 156.072,166.779 156.239 C 166.443 156.543,166.442 156.534,166.442 153.820 L 166.442 151.096 164.671 151.096 L 162.901 151.096 162.901 158.010 M183.304 151.897 C 183.187 152.338,182.995 152.854,182.879 153.044 C 182.762 153.235,182.465 154.028,182.219 154.808 C 181.972 155.587,181.708 156.304,181.631 156.401 C 181.555 156.498,181.318 157.146,181.106 157.841 C 180.894 158.537,180.658 159.188,180.583 159.288 C 180.507 159.388,180.284 159.995,180.087 160.637 C 179.890 161.279,179.671 161.880,179.601 161.973 C 179.408 162.229,178.752 164.273,178.752 164.620 C 178.752 164.895,178.931 164.924,180.594 164.924 L 182.435 164.924 182.549 164.407 C 182.611 164.122,182.769 163.686,182.898 163.437 C 183.028 163.188,183.135 162.852,183.136 162.690 C 183.136 162.425,183.349 162.395,185.219 162.395 L 187.302 162.395 187.633 163.617 L 187.965 164.840 189.935 164.887 C 191.019 164.913,191.906 164.868,191.906 164.786 C 191.906 164.556,191.526 163.501,191.409 163.406 C 191.351 163.360,191.120 162.715,190.894 161.973 C 190.668 161.231,190.439 160.586,190.385 160.540 C 190.331 160.493,190.065 159.772,189.794 158.938 C 189.523 158.103,189.254 157.382,189.196 157.336 C 189.138 157.289,188.954 156.796,188.788 156.239 C 188.621 155.683,188.396 155.076,188.287 154.890 C 188.178 154.705,187.951 154.098,187.783 153.541 C 187.614 152.985,187.333 152.207,187.157 151.813 L 186.838 151.096 185.178 151.096 L 183.518 151.096 183.304 151.897 M191.231 151.351 C 191.231 151.492,191.303 151.738,191.390 151.899 C 191.478 152.060,191.707 153.103,191.901 154.216 C 192.094 155.329,192.321 156.391,192.406 156.577 C 192.491 156.762,192.763 158.090,193.011 159.528 C 193.260 160.965,193.521 162.218,193.592 162.310 C 193.663 162.403,193.818 163.029,193.937 163.702 L 194.152 164.924 195.984 164.924 C 198.145 164.924,197.912 165.191,198.488 162.057 C 198.701 160.898,198.928 159.911,198.992 159.865 C 199.057 159.819,199.181 159.401,199.268 158.938 L 199.426 158.094 199.654 159.275 C 199.778 159.924,199.933 160.493,199.998 160.540 C 200.062 160.586,200.291 161.535,200.506 162.648 C 200.970 165.047,200.830 164.918,202.982 164.922 C 204.933 164.924,204.752 165.078,205.072 163.153 C 205.181 162.504,205.326 161.897,205.395 161.804 C 205.464 161.712,205.691 160.649,205.899 159.444 C 206.107 158.238,206.339 157.133,206.416 156.988 C 206.577 156.682,207.420 152.057,207.420 151.476 C 207.420 151.088,207.402 151.085,205.697 151.132 L 203.974 151.180 203.642 153.373 C 203.458 154.578,203.247 155.590,203.172 155.621 C 203.097 155.652,203.035 155.836,203.035 156.029 C 203.035 156.222,202.946 156.880,202.836 157.490 L 202.636 158.600 202.502 157.841 C 202.428 157.424,202.295 156.931,202.206 156.745 C 202.116 156.560,201.844 155.350,201.600 154.057 C 201.011 150.927,201.136 151.096,199.404 151.096 C 198.247 151.096,197.976 151.144,197.976 151.349 C 197.976 151.488,197.915 151.602,197.840 151.602 C 197.765 151.602,197.525 152.608,197.308 153.836 C 197.090 155.065,196.857 156.147,196.789 156.239 C 196.721 156.332,196.610 156.750,196.543 157.167 C 196.338 158.437,196.171 158.488,196.037 157.321 C 195.968 156.726,195.858 156.202,195.792 156.155 C 195.726 156.109,195.499 154.952,195.287 153.583 L 194.902 151.096 193.067 151.096 C 191.540 151.096,191.231 151.139,191.231 151.351 M211.768 151.730 C 211.609 152.077,211.349 152.778,211.191 153.288 C 211.032 153.798,210.855 154.254,210.796 154.300 C 210.738 154.347,210.476 155.067,210.213 155.902 C 209.951 156.737,209.687 157.458,209.627 157.504 C 209.566 157.551,209.332 158.196,209.106 158.938 C 208.880 159.680,208.644 160.325,208.581 160.371 C 208.518 160.417,208.301 161.002,208.098 161.669 C 207.895 162.337,207.584 163.169,207.406 163.518 C 206.731 164.842,206.822 164.924,208.984 164.924 L 210.885 164.924 211.219 163.702 L 211.554 162.479 213.611 162.432 L 215.667 162.384 215.856 163.086 C 215.960 163.472,216.110 163.911,216.189 164.061 C 216.268 164.211,216.374 164.467,216.424 164.629 C 216.524 164.953,220.236 165.093,220.236 164.773 C 220.236 164.515,219.533 162.320,219.394 162.142 C 219.321 162.049,219.047 161.328,218.785 160.540 C 218.523 159.751,218.267 159.068,218.216 159.022 C 218.165 158.976,217.943 158.369,217.723 157.674 C 217.503 156.979,217.227 156.258,217.110 156.072 C 216.993 155.886,216.841 155.468,216.773 155.143 C 216.706 154.819,216.471 154.160,216.251 153.679 C 216.031 153.198,215.852 152.745,215.852 152.672 C 215.852 152.600,215.727 152.216,215.576 151.818 L 215.300 151.096 213.679 151.098 L 212.057 151.100 211.768 151.730 M218.550 151.322 C 218.550 151.592,219.215 153.161,219.384 153.288 C 219.445 153.335,219.671 153.790,219.887 154.300 C 220.102 154.810,220.339 155.266,220.412 155.314 C 220.486 155.361,220.710 155.816,220.910 156.325 C 221.111 156.835,221.371 157.365,221.489 157.504 C 221.607 157.643,221.881 158.194,222.097 158.727 C 222.313 159.260,222.552 159.696,222.628 159.696 C 222.704 159.696,222.766 160.873,222.766 162.310 L 222.766 164.924 224.621 164.924 L 226.476 164.924 226.476 162.444 L 226.476 159.964 227.689 157.511 C 228.356 156.163,228.949 155.021,229.006 154.975 C 229.063 154.928,229.331 154.359,229.600 153.710 C 229.869 153.061,230.138 152.492,230.197 152.445 C 230.389 152.294,230.691 151.630,230.691 151.360 C 230.691 151.137,230.408 151.096,228.840 151.096 C 226.725 151.096,226.765 151.071,226.217 152.782 C 226.054 153.293,225.856 153.752,225.778 153.803 C 225.699 153.855,225.456 154.409,225.237 155.035 C 224.724 156.503,224.558 156.664,224.291 155.954 C 224.176 155.647,223.869 154.903,223.609 154.300 C 223.349 153.697,223.037 152.919,222.917 152.572 C 222.796 152.224,222.642 151.939,222.575 151.939 C 222.507 151.939,222.428 151.769,222.398 151.560 C 222.331 151.087,218.550 150.853,218.550 151.322 M238.954 158.010 L 238.954 164.924 240.725 164.924 L 242.496 164.924 242.496 162.226 L 242.496 159.528 245.110 159.528 L 247.723 159.528 247.723 158.094 L 247.723 156.661 245.110 156.661 L 242.496 156.661 242.496 155.396 L 242.496 154.132 245.363 154.132 L 248.229 154.132 248.229 152.614 L 248.229 151.096 243.592 151.096 L 238.954 151.096 238.954 158.010 M249.578 158.010 L 249.578 164.924 251.349 164.924 L 253.120 164.924 253.120 158.010 L 253.120 151.096 251.349 151.096 L 249.578 151.096 249.578 158.010 M254.975 158.010 L 254.975 164.924 256.742 164.924 L 258.510 164.924 258.555 161.195 L 258.600 157.466 259.023 158.118 C 259.255 158.476,259.589 159.091,259.765 159.486 C 259.941 159.880,260.140 160.202,260.207 160.202 C 260.274 160.202,260.490 160.575,260.686 161.031 C 260.882 161.487,261.100 161.885,261.170 161.916 C 261.241 161.947,261.488 162.385,261.720 162.888 C 261.952 163.391,262.218 163.888,262.310 163.991 C 262.403 164.095,262.563 164.328,262.666 164.510 C 262.829 164.800,263.070 164.846,264.647 164.888 L 266.442 164.936 266.442 158.016 L 266.442 151.096 264.671 151.096 L 262.901 151.096 262.901 154.913 C 262.901 159.147,262.895 159.159,261.889 157.167 C 261.679 156.750,261.454 156.370,261.390 156.324 C 261.326 156.277,261.051 155.785,260.780 155.229 C 260.509 154.674,260.224 154.143,260.148 154.049 C 259.950 153.807,259.269 152.655,258.826 151.813 L 258.449 151.096 256.712 151.096 L 254.975 151.096 254.975 158.010 M268.128 157.994 L 268.128 164.924 270.818 164.924 C 273.334 164.924,275.211 164.716,275.211 164.438 C 275.211 164.372,275.484 164.218,275.819 164.098 C 277.350 163.544,278.676 161.487,278.909 159.305 C 279.052 157.957,278.858 155.317,278.602 155.150 C 278.526 155.100,278.306 154.718,278.113 154.300 C 277.644 153.280,276.775 152.406,275.780 151.952 C 275.328 151.746,274.806 151.490,274.621 151.382 C 274.409 151.259,273.133 151.163,271.206 151.125 L 268.128 151.064 268.128 157.994 M284.932 151.346 C 284.872 151.502,284.823 154.621,284.823 158.277 L 284.823 164.924 288.322 164.920 C 291.510 164.916,293.182 164.762,293.420 164.451 C 293.469 164.387,293.810 164.172,294.178 163.975 C 295.961 163.017,296.125 158.954,294.412 158.195 L 293.890 157.964 294.493 157.412 C 294.824 157.108,295.132 156.682,295.177 156.465 C 295.682 154.006,294.975 152.322,293.201 151.763 C 292.813 151.641,292.389 151.460,292.259 151.361 C 291.815 151.022,285.061 151.008,284.932 151.346 M297.133 158.010 L 297.133 164.924 301.686 164.924 L 306.239 164.924 306.239 163.491 L 306.239 162.057 303.457 162.057 L 300.675 162.057 300.675 156.577 L 300.675 151.096 298.904 151.096 L 297.133 151.096 297.133 158.010 M307.522 151.363 C 307.466 151.510,307.420 154.621,307.420 158.277 L 307.420 164.924 309.275 164.924 L 311.130 164.924 311.130 158.010 L 311.130 151.096 309.377 151.096 C 307.935 151.096,307.607 151.143,307.522 151.363 M339.966 152.614 L 339.966 154.132 341.906 154.132 L 343.845 154.132 343.845 159.528 L 343.845 164.924 345.700 164.924 L 347.555 164.924 347.555 159.528 L 347.555 154.132 349.494 154.132 L 351.433 154.132 351.433 152.614 L 351.433 151.096 345.700 151.096 L 339.966 151.096 339.966 152.614 M365.261 157.992 L 365.261 164.924 367.931 164.924 C 370.505 164.924,372.593 164.685,372.423 164.409 C 372.378 164.337,372.553 164.231,372.811 164.174 C 373.304 164.066,375.042 162.521,375.042 162.191 C 375.042 162.086,375.154 161.877,375.290 161.726 C 376.294 160.616,376.234 154.927,375.210 154.132 C 375.150 154.085,374.961 153.807,374.791 153.514 C 374.620 153.220,374.303 152.899,374.087 152.800 C 373.870 152.702,373.693 152.547,373.693 152.457 C 373.693 152.281,372.280 151.602,371.915 151.602 C 371.795 151.602,371.666 151.508,371.628 151.393 C 371.577 151.240,370.719 151.167,368.410 151.121 L 365.261 151.059 365.261 157.992 M381.058 151.223 C 381.018 151.292,380.931 151.596,380.866 151.897 C 380.802 152.199,380.694 152.445,380.626 152.445 C 380.558 152.445,380.327 153.033,380.112 153.752 C 379.897 154.471,379.672 155.097,379.612 155.143 C 379.482 155.243,378.746 157.500,378.750 157.787 C 378.751 157.897,378.653 158.086,378.533 158.209 C 378.412 158.331,378.136 159.058,377.919 159.823 C 377.702 160.588,377.471 161.214,377.404 161.214 C 377.338 161.214,377.110 161.802,376.898 162.521 C 376.686 163.240,376.459 163.866,376.393 163.912 C 376.328 163.959,376.223 164.208,376.160 164.466 L 376.045 164.935 378.013 164.887 L 379.982 164.840 380.217 163.997 C 380.682 162.329,380.578 162.395,382.759 162.395 C 384.544 162.395,384.692 162.419,384.774 162.732 C 384.823 162.917,384.917 163.069,384.984 163.069 C 385.051 163.069,385.206 163.487,385.329 163.997 L 385.551 164.924 387.464 164.924 L 389.376 164.924 389.376 164.503 C 389.376 164.271,389.314 164.081,389.239 164.081 C 389.163 164.081,388.927 163.477,388.714 162.740 C 388.501 162.002,388.274 161.376,388.210 161.348 C 388.146 161.321,387.917 160.729,387.702 160.034 C 387.487 159.338,387.248 158.690,387.171 158.593 C 387.094 158.496,386.830 157.775,386.584 156.991 C 386.337 156.207,386.075 155.489,386.002 155.396 C 385.928 155.304,385.701 154.677,385.497 154.005 C 385.294 153.333,385.073 152.782,385.007 152.782 C 384.941 152.782,384.789 152.403,384.671 151.939 L 384.454 151.096 382.794 151.096 C 381.880 151.096,381.099 151.153,381.058 151.223 M387.648 151.194 C 387.539 151.303,387.994 152.624,388.195 152.782 C 388.371 152.922,391.231 158.764,391.231 158.985 C 391.231 159.098,391.295 159.191,391.373 159.191 C 391.744 159.191,391.906 160.188,391.906 162.487 L 391.906 164.924 393.676 164.924 L 395.447 164.924 395.447 162.407 C 395.447 160.411,395.498 159.838,395.696 159.640 C 395.833 159.503,396.105 158.986,396.300 158.491 C 396.495 157.997,396.715 157.553,396.788 157.506 C 396.862 157.459,397.099 157.003,397.314 156.492 C 397.529 155.982,397.758 155.527,397.822 155.481 C 397.886 155.434,398.145 154.903,398.398 154.300 C 398.651 153.697,398.919 153.165,398.994 153.118 C 399.114 153.042,399.831 151.377,399.831 151.174 C 399.831 151.131,398.965 151.096,397.905 151.096 L 395.980 151.096 395.868 151.602 C 395.807 151.880,395.702 152.108,395.633 152.108 C 395.565 152.108,395.340 152.588,395.132 153.175 C 394.925 153.762,394.570 154.610,394.342 155.059 C 394.115 155.508,393.929 155.976,393.929 156.099 C 393.929 156.744,393.427 156.198,393.088 155.185 C 392.879 154.559,392.648 153.971,392.574 153.879 C 392.501 153.786,392.215 153.141,391.939 152.445 L 391.438 151.180 389.597 151.133 C 388.585 151.107,387.707 151.135,387.648 151.194 M358.792 154.163 C 359.363 154.369,360.034 155.531,360.034 156.313 C 360.034 156.504,360.110 156.661,360.202 156.661 C 360.301 156.661,360.371 157.220,360.371 158.000 C 360.371 158.737,360.295 159.386,360.202 159.444 C 360.110 159.501,360.034 159.689,360.034 159.861 C 360.034 160.490,359.406 161.645,358.952 161.852 C 357.912 162.325,356.155 161.873,356.155 161.132 C 356.155 161.007,356.081 160.880,355.990 160.849 C 355.365 160.636,355.365 155.143,355.989 155.143 C 356.068 155.143,356.183 154.985,356.244 154.791 C 356.461 154.109,357.758 153.789,358.792 154.163 M273.793 154.329 C 274.374 154.539,275.042 155.506,275.042 156.136 C 275.042 156.332,275.118 156.492,275.211 156.492 C 275.399 156.492,275.450 159.401,275.265 159.586 C 275.202 159.649,275.027 160.058,274.876 160.496 C 274.541 161.464,273.929 161.871,272.604 162.008 L 271.669 162.105 271.669 158.118 L 271.669 154.132 272.459 154.132 C 272.892 154.132,273.493 154.220,273.793 154.329 M291.362 154.394 C 291.653 154.598,291.737 154.823,291.737 155.402 C 291.737 156.360,291.236 156.661,289.637 156.661 L 288.533 156.661 288.533 155.396 L 288.533 154.132 289.760 154.132 C 290.598 154.132,291.106 154.215,291.362 154.394 M371.366 154.650 C 371.543 154.875,371.797 155.192,371.930 155.354 C 372.329 155.840,372.556 157.821,372.369 159.177 C 372.108 161.056,371.082 162.057,369.416 162.057 L 368.971 162.057 368.971 158.074 L 368.971 154.091 370.008 154.166 C 370.854 154.227,371.104 154.316,371.366 154.650 M383.311 157.673 C 383.520 158.461,383.765 159.201,383.856 159.317 C 383.985 159.481,383.757 159.528,382.820 159.528 C 381.731 159.528,381.619 159.496,381.619 159.191 C 381.619 159.005,381.686 158.853,381.769 158.853 C 381.851 158.853,382.089 158.161,382.299 157.315 C 382.726 155.585,382.763 155.598,383.311 157.673 M186.074 158.426 C 186.547 159.424,186.471 159.528,185.262 159.528 L 184.184 159.528 184.318 158.980 C 184.391 158.678,184.548 158.033,184.666 157.546 C 184.784 157.059,184.944 156.661,185.021 156.661 C 185.097 156.661,185.167 156.490,185.176 156.282 C 185.184 156.073,185.329 156.343,185.499 156.883 C 185.668 157.422,185.927 158.116,186.074 158.426 M213.825 156.703 C 213.827 156.866,213.887 156.998,213.959 156.998 C 214.072 156.998,214.677 159.037,214.673 159.401 C 214.672 159.471,214.189 159.528,213.599 159.528 L 212.527 159.528 212.694 158.685 C 212.786 158.221,212.921 157.841,212.995 157.841 C 213.069 157.841,213.218 157.413,213.327 156.889 C 213.514 155.990,213.818 155.877,213.825 156.703 M110.922 157.209 C 111.112 157.789,111.321 158.548,111.386 158.895 L 111.505 159.528 110.402 159.528 L 109.298 159.528 109.437 159.045 C 109.513 158.780,109.649 158.420,109.740 158.244 C 109.831 158.069,109.998 157.527,110.113 157.040 C 110.380 155.900,110.501 155.926,110.922 157.209 M291.572 159.530 C 291.933 159.723,292.165 160.662,291.990 161.215 C 291.825 161.734,290.920 162.057,289.634 162.057 L 288.533 162.057 288.533 160.708 L 288.533 159.359 289.893 159.359 C 290.641 159.359,291.397 159.436,291.572 159.530 M229.581 162.212 C 229.542 162.251,229.511 162.979,229.511 163.831 C 229.511 165.242,229.300 166.394,229.003 166.610 C 228.838 166.730,228.499 167.399,228.499 167.603 C 228.499 167.804,229.923 168.465,230.356 168.465 C 231.246 168.465,232.435 165.836,232.450 163.832 L 232.462 162.310 231.056 162.226 C 230.283 162.180,229.619 162.173,229.581 162.212 " stroke="none" fill="#8c041c" fill-rule="evenodd"></path><path id="path2" d="" stroke="none" fill="#d4402c" fill-rule="evenodd"></path><path id="path3" d="" stroke="none" fill="#d4402c" fill-rule="evenodd"></path><path id="path4" d="" stroke="none" fill="#d4402c" fill-rule="evenodd"></path></g></svg>